<svg width="22" height="18" viewBox="0 0 22 18" fill="none" xmlns="http://www.w3.org/2000/svg">
<path d="M20.0281 4.30958C19.0718 3.24053 17.7729 2.39602 16.1313 1.77627C14.4897 1.15652 12.6966 0.84668 10.7521 0.84668C8.80765 0.84668 7.01455 1.15652 5.37293 1.77627C3.73132 2.39602 2.43239 3.24038 1.47608 4.30958C0.519721 5.3787 0.041626 6.54383 0.041626 7.80508C0.041626 8.89229 0.402113 9.91099 1.12338 10.8605C1.84464 11.81 2.83069 12.6075 4.08196 13.2526C3.99421 13.5424 3.89063 13.8178 3.77105 14.0789C3.65152 14.3398 3.54396 14.5537 3.44833 14.7205C3.35262 14.8871 3.22324 15.072 3.05975 15.2748C2.8965 15.4779 2.77299 15.6211 2.6893 15.7045C2.60569 15.7879 2.46823 15.9254 2.27685 16.1176C2.08572 16.3096 1.96213 16.4348 1.9064 16.4928C1.89832 16.4965 1.8665 16.5289 1.81073 16.5909C1.755 16.6524 1.72704 16.683 1.72704 16.683L1.65532 16.7808C1.61542 16.8349 1.5975 16.8695 1.60143 16.8838C1.60545 16.8984 1.5975 16.9346 1.57757 16.9925C1.5576 17.0506 1.55965 17.0941 1.58351 17.1231V17.134C1.61542 17.2571 1.6791 17.3569 1.77472 17.433C1.87035 17.5088 1.97812 17.5469 2.09753 17.5469H2.15736C2.67548 17.4888 3.12967 17.4093 3.52009 17.3078C5.60807 16.8222 7.44102 15.9451 9.01883 14.6765C9.61646 14.7345 10.1942 14.7634 10.752 14.7634C12.6965 14.7634 14.4896 14.4536 16.1312 13.8337C17.7728 13.2139 19.0718 12.3697 20.028 11.3006C20.9844 10.2315 21.4625 9.06629 21.4625 7.80504C21.4626 6.54398 20.9845 5.3787 20.0281 4.30958ZM18.6833 10.5777C17.8502 11.4329 16.7266 12.1125 15.3121 12.6162C13.8977 13.1198 12.3775 13.3718 10.7518 13.3718C10.2658 13.3718 9.7478 13.3429 9.19794 13.2848L8.51658 13.2197L8.00256 13.633C7.0225 14.4159 5.92664 15.0355 4.71535 15.4922C5.08186 14.9052 5.36079 14.2818 5.55213 13.6223L5.87485 12.5784L4.83493 12.035C3.79893 11.4983 2.99615 10.8623 2.42624 10.1265C1.85641 9.39094 1.57162 8.61699 1.57162 7.80523C1.57162 6.81216 1.988 5.88805 2.82072 5.03272C3.65369 4.17747 4.77719 3.49789 6.19175 2.99414C7.60632 2.49035 9.12626 2.23825 10.7521 2.23825C12.3777 2.23825 13.8976 2.49024 15.3121 2.99399C16.7265 3.49778 17.8502 4.17732 18.6832 5.03257C19.516 5.8879 19.9323 6.81205 19.9323 7.80504C19.9323 8.79804 19.516 9.72237 18.6833 10.5777Z" fill="#CDCDCD"/>
</svg>
