<svg width="38" height="38" viewBox="0 0 38 38" fill="none" xmlns="http://www.w3.org/2000/svg">
<g clip-path="url(#clip0)">
<path d="M35.957 -5.81739e-05H2.07814C1.48061 -0.00118844 0.932806 0.332616 0.659659 0.864217C0.382745 1.40298 0.431346 2.05175 0.785118 2.54379L13.1969 20.0282C13.2011 20.0342 13.2056 20.0399 13.2097 20.0459C13.6607 20.6548 13.9045 21.3921 13.906 22.1501V36.405C13.9033 36.8273 14.0691 37.2327 14.3667 37.5322C14.6644 37.8317 15.069 37.9998 15.491 37.9998C15.7057 37.9998 15.9178 37.9568 16.116 37.8747L23.0905 35.2152C23.7155 35.0245 24.1303 34.4349 24.1303 33.7247V22.1501C24.1315 21.3924 24.3756 20.6548 24.8262 20.0459C24.8303 20.0399 24.8349 20.0342 24.839 20.0282L37.2504 2.54303C37.6042 2.05137 37.6528 1.40298 37.3759 0.864217C37.1027 0.332616 36.5549 -0.00118844 35.957 -5.81739e-05ZM23.271 18.9032C22.5777 19.844 22.2029 20.9814 22.2006 22.1501V33.4904L15.835 35.9175V22.1501C15.8327 20.9814 15.4578 19.844 14.7642 18.9032L2.71448 1.92892H35.3211L23.271 18.9032Z" fill="black"/>
</g>
<defs>
<clipPath id="clip0">
<rect width="38" height="38" fill="white"/>
</clipPath>
</defs>
</svg>
