<svg width="27" height="21" viewBox="0 0 27 21" fill="none" xmlns="http://www.w3.org/2000/svg">
<path d="M13.3437 20.7956C12.9685 20.7956 12.6068 20.6808 12.3249 20.4723C11.2603 19.6861 10.2338 18.9472 9.32823 18.2955L9.32361 18.2921C6.66852 16.3812 4.37576 14.7309 2.78049 13.1053C0.997233 11.288 0.166626 9.56489 0.166626 7.68251C0.166626 5.85362 0.909165 4.16636 2.25732 2.93131C3.62156 1.68166 5.49349 0.993408 7.52888 0.993408C9.05016 0.993408 10.4433 1.3996 11.6697 2.20061C12.2885 2.60493 12.8495 3.09977 13.3437 3.67696C13.8382 3.09977 14.3989 2.60493 15.018 2.20061C16.2443 1.3996 17.6375 0.993408 19.1588 0.993408C21.194 0.993408 23.0661 1.68166 24.4304 2.93131C25.7785 4.16636 26.5208 5.85362 26.5208 7.68251C26.5208 9.56489 25.6904 11.288 23.9072 13.1051C22.3119 14.7309 20.0194 16.381 17.3647 18.2917C16.4575 18.9445 15.4294 19.6846 14.3623 20.4727C14.0806 20.6808 13.7187 20.7956 13.3437 20.7956ZM7.52888 2.29723C5.9298 2.29723 4.46081 2.83622 3.39214 3.81502C2.30758 4.8086 1.71022 6.18204 1.71022 7.68251C1.71022 9.26568 2.40691 10.6816 3.969 12.2734C5.47881 13.8121 7.72452 15.4284 10.3247 17.2999L10.3295 17.3033C11.2386 17.9576 12.269 18.6993 13.3415 19.4913C14.4204 18.6978 15.4525 17.9548 16.3634 17.2995C18.9633 15.428 21.2089 13.8121 22.7187 12.2734C24.2806 10.6816 24.9773 9.26568 24.9773 7.68251C24.9773 6.18204 24.3799 4.8086 23.2953 3.81502C22.2269 2.83622 20.7577 2.29723 19.1588 2.29723C17.9874 2.29723 16.9119 2.61173 15.9622 3.23188C15.1159 3.78479 14.5264 4.48374 14.1808 4.97281C14.003 5.2243 13.6902 5.37441 13.3437 5.37441C12.9973 5.37441 12.6844 5.2243 12.5067 4.97281C12.1613 4.48374 11.5717 3.78479 10.7252 3.23188C9.7756 2.61173 8.7001 2.29723 7.52888 2.29723Z" fill="#CDCDCD"/>
</svg>
